<svg width="25" height="25" viewBox="0 0 25 25" fill="none" xmlns="http://www.w3.org/2000/svg">
<g clip-path="url(#clip0_115_146)">
<path d="M21.9089 1.87361H2.167C1.4908 1.87361 0.942627 2.42178 0.942627 3.09799V22.8399C0.942627 23.5161 1.4908 24.0642 2.167 24.0642H21.9089C22.5851 24.0642 23.1333 23.5161 23.1333 22.8399V3.09799C23.1333 2.42178 22.5851 1.87361 21.9089 1.87361Z" fill="#3D5A98"/>
<path d="M16.2521 24.0624V15.4692H19.1358L19.5671 12.1205H16.2521V9.98299C16.2521 9.01362 16.5221 8.35174 17.9114 8.35174H19.6852V5.35174C18.8263 5.26223 17.9631 5.21966 17.0996 5.22424C14.5458 5.22424 12.7871 6.78049 12.7871 9.65112V12.1205H9.90332V15.4692H12.7871V24.0624H16.2521Z" fill="white"/>
</g>
<defs>
<clipPath id="clip0_115_146">
<rect width="24" height="24" fill="white" transform="translate(0.0371094 0.967987)"/>
</clipPath>
</defs>
</svg>
