<svg width="48" height="48" viewBox="0 0 48 48" fill="none" xmlns="http://www.w3.org/2000/svg">
<g clip-path="url(#clip0_122_153)">
<circle cx="24" cy="24" r="24" fill="black"/>
<path d="M30.4722 26.6867L34.2766 30.4883L23.9846 40.7803L13.6926 30.4897L17.4956 26.6867L23.9846 33.2093L30.4722 26.6867ZM36.9626 20.1977L40.7964 23.9993L36.9962 27.8009L33.1932 23.9993L36.9626 20.1977ZM23.9846 20.1977L27.7862 23.9657L23.9832 27.7687L20.1816 23.9993L23.9846 20.1977ZM11.0052 20.1977L14.776 23.9993L11.008 27.7673L7.20361 23.9993L11.0052 20.1977ZM23.986 7.21971L34.2738 17.4767L30.4708 21.2769L23.986 14.7893L17.497 21.3119L13.694 17.5103L23.986 7.21971Z" fill="#F3BA2E"/>
</g>
<defs>
<clipPath id="clip0_122_153">
<rect width="48" height="48" fill="white"/>
</clipPath>
</defs>
</svg>
