<svg width="48" height="48" viewBox="0 0 48 48" fill="none" xmlns="http://www.w3.org/2000/svg">
<g clip-path="url(#clip0_123_155)">
<circle cx="24" cy="24" r="24" fill="#D9D9D9"/>
<path d="M26.8186 23.9999V27.4985L27.5013 27.4825L28.1786 27.4665L28.2053 25.8932C28.2319 24.3625 28.2373 24.3145 28.3546 24.1172C28.4879 23.9039 28.8186 23.6852 29.0906 23.6265C29.1813 23.6105 29.3733 23.6212 29.5173 23.6585C29.8373 23.7385 30.1999 24.0799 30.2799 24.3785C30.3173 24.5012 30.3386 25.1732 30.3386 26.0372V27.4932H31.0053H31.6719V25.7439C31.6719 24.1492 31.6613 23.9625 31.5706 23.6905C31.3679 23.1039 31.0053 22.7199 30.4079 22.4425C29.8266 22.1705 28.9519 22.2612 28.4239 22.6399L28.2053 22.7999L28.1946 21.6639L28.1786 20.5332L27.5013 20.5172L26.8186 20.5012V23.9999Z" fill="#00239E"/>
<path d="M22.6428 21.2318C22.5841 21.2904 22.6001 25.5678 22.6588 25.8291C22.9521 27.1038 24.3868 27.8398 25.4854 27.2798C25.6028 27.2211 25.6988 27.1411 25.6988 27.1038C25.6988 27.0451 25.5281 26.5011 25.4054 26.1758C25.3894 26.1278 25.3468 26.1278 25.2348 26.1864C24.8614 26.3838 24.3761 26.2344 24.1148 25.8451C23.9974 25.6744 23.9921 25.6158 23.9921 24.6344V23.5998H24.6854H25.3788V23.0131V22.4264H24.6854H23.9974L23.9814 21.8238L23.9654 21.2264L23.3201 21.2104C22.9681 21.2051 22.6641 21.2158 22.6428 21.2318Z" fill="#00239E"/>
<path d="M4.16266 23.5626L2.86133 24.8639L4.16266 26.1493L5.45866 27.4399H6.792H8.12L6.84533 26.1599L5.57066 24.8799L6.83466 23.6106C7.528 22.9173 8.09866 22.3306 8.09866 22.3039C8.09866 22.2826 7.50666 22.2666 6.776 22.2666H5.45866L4.16266 23.5626Z" fill="#FE1176"/>
<path d="M11.7412 22.3413C10.3865 22.6826 9.47988 23.9679 9.68788 25.2319C9.85321 26.2239 10.6265 27.0666 11.6452 27.3653C12.0985 27.4986 12.8719 27.4826 13.3305 27.3386C13.9012 27.1573 14.5892 26.6399 14.8132 26.2186C14.8719 26.1173 14.8559 26.1013 14.6745 26.0266C14.5625 25.9786 14.2959 25.8613 14.0772 25.7653L13.6825 25.5946L13.4745 25.8186C12.9519 26.3893 12.0399 26.4266 11.4905 25.9039C10.9519 25.3866 10.8772 24.5919 11.3145 24.0159C11.8532 23.3119 12.8079 23.2479 13.4319 23.8719L13.6932 24.1333L14.2799 23.8773C14.6052 23.7386 14.8719 23.6159 14.8719 23.5999C14.8719 23.5839 14.7652 23.4399 14.6372 23.2746C14.3652 22.9279 13.9172 22.6133 13.4319 22.4373C13.0052 22.2773 12.1732 22.2293 11.7412 22.3413Z" fill="#00239E"/>
<path d="M17.5439 22.3518C16.6319 22.5972 15.8959 23.3652 15.6932 24.2825C15.4266 25.4772 15.9866 26.6452 17.0799 27.1998C17.8639 27.5892 18.8879 27.5465 19.5759 27.0932L19.7786 26.9598L19.8052 27.0825C19.8266 27.1518 19.8319 27.2265 19.8266 27.2585C19.7839 27.4878 19.8052 27.4932 20.4986 27.4932H21.1652V24.8798V22.2665H20.4986C20.0026 22.2665 19.8319 22.2825 19.8266 22.3305C19.7999 22.6345 19.7892 22.7198 19.7839 22.7305C19.7839 22.7358 19.6186 22.6612 19.4212 22.5598C19.2186 22.4585 18.9519 22.3518 18.8186 22.3252C18.4826 22.2452 17.8852 22.2612 17.5439 22.3518ZM19.0052 23.5892C19.6239 23.9092 19.9386 24.5918 19.7572 25.2212C19.5172 26.0425 18.7119 26.4585 17.9066 26.1865C16.7119 25.7758 16.7012 24.0212 17.8906 23.5465C18.2159 23.4132 18.7012 23.4292 19.0052 23.5892Z" fill="#00239E"/>
<path d="M34.8293 22.352C34.0506 22.56 33.3573 23.1147 33.0159 23.8027C32.8186 24.2027 32.8186 24.2133 32.8186 24.848C32.8186 25.4827 32.8239 25.4987 33.0159 25.9093C33.4746 26.8747 34.4079 27.4507 35.5119 27.456C36.5306 27.4613 37.3626 27.0347 37.9226 26.2293C38.7439 25.0293 38.2746 23.3227 36.9146 22.6027C36.3226 22.2827 35.4586 22.1813 34.8293 22.352ZM35.9706 23.52C36.9626 23.8133 37.2879 25.1253 36.5466 25.8613C35.7999 26.6133 34.4933 26.2773 34.1999 25.2587C34.0293 24.6773 34.2693 23.9947 34.7599 23.696C35.1759 23.4347 35.5226 23.3867 35.9706 23.52Z" fill="#00239E"/>
<path d="M39.8853 22.3039C39.8853 22.3306 40.456 22.9173 41.1493 23.6106L42.4186 24.8799L41.1386 26.1599L39.8586 27.4399H41.2186H42.5786L43.8586 26.1599L45.1386 24.8799L43.832 23.5733L42.5253 22.2666H41.208C40.4773 22.2666 39.8853 22.2826 39.8853 22.3039Z" fill="#FE1176"/>
</g>
<defs>
<clipPath id="clip0_123_155">
<rect width="48" height="48" fill="white"/>
</clipPath>
</defs>
</svg>
