<svg width="48" height="48" viewBox="0 0 48 48" fill="none" xmlns="http://www.w3.org/2000/svg">
<rect width="48" height="48" rx="24" fill="white"/>
<path d="M32.6939 26.1734C29.893 26.1734 27.6225 23.9029 27.6225 21.1021C27.6225 18.9054 29.0222 17.0399 30.9761 16.3357C29.6257 15.6815 28.1253 15.3062 26.5358 15.3062C20.7341 15.3062 16.0308 20.1718 16.0308 26.1734C16.0308 32.1751 20.7341 37.0407 26.5358 37.0407C32.3375 37.0407 37.0408 32.1751 37.0408 26.1734C37.0408 25.4381 36.9684 24.7201 36.8336 24.0254C35.915 25.3236 34.4051 26.1734 32.6939 26.1734Z" fill="url(#paint0_linear_123_169)"/>
<path d="M12.4082 25.449C12.4082 18.2469 18.2468 12.4083 25.4489 12.4083C32.4069 12.4083 38.0752 17.8614 38.4534 24.7245C38.4657 24.4832 38.4896 24.2449 38.4896 24C38.4896 15.9973 32.0026 9.51031 23.9999 9.51031C15.9973 9.51031 9.51025 15.9973 9.51025 24C9.51025 32.0027 15.9973 38.4897 23.9999 38.4897C24.2448 38.4897 24.4832 38.4651 24.7244 38.4535C17.8614 38.0753 12.4082 32.4069 12.4082 25.449Z" fill="url(#paint1_linear_123_169)"/>
<defs>
<linearGradient id="paint0_linear_123_169" x1="20.8834" y1="16.9892" x2="31.663" y2="35.6606" gradientUnits="userSpaceOnUse">
<stop stop-color="#EC8601"/>
<stop offset="0.592" stop-color="#E77101"/>
<stop offset="0.771" stop-color="#E46401"/>
<stop offset="0.941" stop-color="#E36001"/>
</linearGradient>
<linearGradient id="paint1_linear_123_169" x1="16.7536" y1="11.449" x2="30.4399" y2="35.1542" gradientUnits="userSpaceOnUse">
<stop stop-color="#EC8601"/>
<stop offset="0.592" stop-color="#E77101"/>
<stop offset="0.771" stop-color="#E46401"/>
<stop offset="0.941" stop-color="#E36001"/>
</linearGradient>
</defs>
</svg>
