<svg width="48" height="48" viewBox="0 0 48 48" fill="none" xmlns="http://www.w3.org/2000/svg">
<rect width="48" height="48" rx="24" fill="#430098"/>
<path d="M16 35.875V29.0535L19.8371 32.4643L16 35.875ZM27.9375 35.875V25.6898C27.9209 24.8938 27.5376 23.9375 25.8059 23.9375C22.338 23.9375 18.448 25.6817 18.4093 25.6991L16 26.7906V12H19.4107V21.6826C21.1135 21.1283 23.4937 20.5268 25.8059 20.5268C27.914 20.5268 29.176 21.3556 29.8633 22.051C31.3303 23.5345 31.3503 25.4245 31.3483 25.6428V35.875H27.9375ZM28.7902 17.5424H25.3794C26.7199 15.7837 27.5615 13.9331 27.9375 12H31.3482C31.118 13.9373 30.3327 15.7944 28.7902 17.5424Z" fill="white"/>
</svg>
