<svg width="48" height="48" viewBox="0 0 48 48" fill="none" xmlns="http://www.w3.org/2000/svg">
<rect width="48" height="48" rx="24" fill="white"/>
<path d="M16.4511 22.7393C16.4511 28.9729 23.4738 33.6187 24.1182 38.991C24.1182 38.991 25.3929 37.7507 25.3929 34.7377C25.3929 31.7246 18.8142 22.7321 18.8142 19.8502C18.8142 17.6274 19.0274 16.7392 20.1563 15.4433C20.1563 20.4708 28.5508 26.073 28.5508 31.5477C28.5508 31.5477 29.8255 30.3065 29.8255 27.2944C29.8255 24.2822 23.2468 15.2888 23.2468 12.4069C23.2468 10.1841 23.46 9.29593 24.588 8C24.588 11.9983 29.8994 16.3881 32.0723 22.8722C37.9597 24.4475 42 27.6877 42 31.43C42 36.7153 33.9415 41 24 41C14.0585 41 6 36.7153 6 31.4291C6 27.5764 10.2803 24.2571 16.4511 22.7393Z" fill="#FF0000" stroke="#FF0000" stroke-linecap="round" stroke-linejoin="round"/>
</svg>
