<svg width="48" height="49" viewBox="0 0 48 49" fill="none" xmlns="http://www.w3.org/2000/svg">
<rect y="0.5" width="48" height="48" rx="24" fill="white"/>
<path d="M39 21.5234V28.6367L38.0156 29.5977V22.6367L39 21.5234Z" fill="#E79225"/>
<path d="M32.5488 21.5293L31.5293 22.6367L31.582 22.707L37.9746 22.6836L38.0332 22.6367L39 21.5234L32.5488 21.5293Z" fill="#FFF16D"/>
<path d="M38.0332 22.6367H31.5293V29.6035H38.0332V22.6367Z" fill="url(#paint0_linear_123_177)"/>
<path d="M37.043 25.1445C36.9141 24.8223 36.7207 24.5293 36.4688 24.2773C36.2285 24.0313 35.959 23.8438 35.6543 23.7207C35.3555 23.5977 35.0332 23.5332 34.6816 23.5332C34.3301 23.5332 34.002 23.5977 33.7031 23.7207C33.3984 23.8438 33.1289 24.0313 32.8887 24.2773C32.6367 24.5293 32.4492 24.8223 32.3203 25.1445C32.1914 25.4668 32.1328 25.8184 32.1328 26.2051C32.1328 26.5801 32.1973 26.9316 32.3262 27.2598C32.4551 27.5879 32.6426 27.8809 32.8945 28.1387C33.1289 28.3789 33.3984 28.5605 33.6973 28.6836C33.9961 28.8066 34.3301 28.8711 34.6875 28.8711C35.0332 28.8711 35.3555 28.8066 35.6543 28.6836C35.9531 28.5605 36.2285 28.3789 36.4688 28.1387C36.7207 27.8809 36.9141 27.5879 37.043 27.2656C37.1719 26.9434 37.2363 26.5859 37.2363 26.2109C37.2363 25.8184 37.1719 25.4668 37.043 25.1445ZM35.7012 27.4414C35.4492 27.7402 35.1152 27.8926 34.6816 27.8926C34.248 27.8926 33.9082 27.7402 33.6562 27.4414C33.4043 27.1426 33.2812 26.7266 33.2812 26.1992C33.2812 25.6602 33.4102 25.2441 33.6562 24.9395C33.9082 24.6348 34.2422 24.4883 34.6816 24.4883C35.1152 24.4883 35.4492 24.6406 35.7012 24.9395C35.9473 25.2441 36.0762 25.6602 36.0762 26.1992C36.0762 26.7266 35.9531 27.1426 35.7012 27.4414Z" fill="white"/>
<path d="M30.8906 20.9434V20.9785L31.7227 27.3711L31.2363 28.7187L31.1719 28.6719L30.3164 22.543L30.334 22.4609L30.8672 20.9785L30.8906 20.9434Z" fill="#009ADA"/>
<path d="M24.4863 21.834L30.8906 20.9434L30.3516 22.4785L30.2754 22.5605L24.2871 23.4395L24.3164 22.3438L24.4863 21.834Z" fill="#91C9ED"/>
<path d="M30.3516 22.4785L31.2363 28.7188L24.9258 29.6035L24.0762 23.5742L24.4453 23.2871L30.3516 22.4785Z" fill="url(#paint1_linear_123_177)"/>
<path d="M29.2793 23.6738C29.25 23.4805 29.1855 23.334 29.0801 23.2344C28.9922 23.1582 28.8867 23.1172 28.7637 23.1172C28.7344 23.1172 28.6992 23.1172 28.6641 23.123C28.5 23.1465 28.377 23.2227 28.3008 23.3457C28.2422 23.4336 28.2188 23.5449 28.2188 23.6738C28.2188 23.7207 28.2246 23.7734 28.2305 23.8262L28.459 25.4492L26.6426 25.7188L26.4141 24.0957C26.3848 23.9082 26.3203 23.7617 26.2148 23.6621C26.127 23.5801 26.0215 23.5391 25.9043 23.5391C25.875 23.5391 25.8457 23.5391 25.8164 23.5449C25.6465 23.5684 25.5176 23.6445 25.4355 23.7676C25.377 23.8555 25.3535 23.9668 25.3535 24.0957C25.3535 24.1426 25.3594 24.1953 25.3652 24.2539L25.9863 28.4785C26.0156 28.6719 26.0801 28.8184 26.1973 28.918C26.2852 28.9941 26.3906 29.0293 26.5195 29.0293C26.5547 29.0293 26.5898 29.0293 26.625 29.0234C26.7832 29 26.9004 28.9238 26.9766 28.8008C27.0293 28.7129 27.0527 28.6074 27.0527 28.4844C27.0527 28.4375 27.0469 28.3848 27.041 28.332L26.7891 26.6621L28.6055 26.3926L28.8574 28.0625C28.8867 28.2559 28.9512 28.4023 29.0625 28.4961C29.1504 28.5723 29.2559 28.6133 29.3789 28.6133C29.4082 28.6133 29.4434 28.6133 29.4785 28.6074C29.6426 28.584 29.7656 28.5078 29.8418 28.3848C29.8945 28.2969 29.9238 28.1914 29.9238 28.0625C29.9238 28.0156 29.918 27.9629 29.9121 27.9102L29.2793 23.6738Z" fill="white"/>
<path d="M18.4922 19.3145L16.2129 24.7285L16.5234 27.1074L16.541 27.1016L19.1016 21.3418L19.0898 21.2188L18.5391 19.3906L18.4922 19.3145Z" fill="#66BF6B"/>
<path d="M18.4922 19.3145L19.084 21.3008L19.0957 21.3418L24.7324 23.8672L24.75 23.8555L24.2695 21.957L18.4922 19.3145Z" fill="#98D0A0"/>
<path d="M19.084 21.3008L24.75 23.8555L22.1895 29.6621L16.5234 27.1074L19.084 21.3008Z" fill="url(#paint2_linear_123_177)"/>
<path d="M23.0332 24.3242C22.9102 23.9961 22.7402 23.7148 22.5176 23.4805C22.2949 23.2461 22.0254 23.0586 21.709 22.9238C21.3926 22.7891 21.0762 22.7246 20.7539 22.7246H20.7363C20.4082 22.7246 20.0859 22.8008 19.7695 22.9414C19.4355 23.0879 19.1484 23.2871 18.9023 23.5508C18.6563 23.8086 18.457 24.125 18.3047 24.4883C18.1523 24.8457 18.0703 25.209 18.0527 25.5664V25.6895C18.0527 26.0059 18.1055 26.3164 18.2168 26.6211C18.334 26.9434 18.5039 27.2187 18.7266 27.4531C18.9492 27.6875 19.2246 27.875 19.5527 28.0098C19.8633 28.1445 20.1797 28.209 20.502 28.209H20.5078C20.8301 28.209 21.1523 28.1387 21.4688 28.0039C21.8027 27.8574 22.0957 27.6523 22.3418 27.3887C22.5879 27.1309 22.793 26.8203 22.9453 26.457C23.0977 26.0938 23.1797 25.7363 23.1973 25.3789V25.2734C23.2031 24.9512 23.1504 24.6348 23.0332 24.3242ZM21.9023 26.0117C21.6914 26.5156 21.4043 26.8613 21.0586 27.0488C20.8711 27.1484 20.6777 27.2012 20.4844 27.2012C20.3145 27.2012 20.1328 27.1602 19.9512 27.084C19.5527 26.9141 19.3066 26.6445 19.2012 26.2578C19.166 26.1289 19.1484 25.9941 19.1484 25.8535C19.1484 25.5723 19.2188 25.2617 19.3594 24.9277C19.5762 24.4121 19.8633 24.0605 20.209 23.8672C20.3965 23.7617 20.5898 23.7148 20.7832 23.7148C20.959 23.7148 21.1348 23.7559 21.3223 23.832C21.7148 24.002 21.9609 24.2715 22.0664 24.6582C22.1016 24.7812 22.1191 24.916 22.1191 25.0566C22.1191 25.3496 22.0488 25.666 21.9023 26.0117Z" fill="white"/>
<path d="M15.7617 20.2344L16.6875 26.4336L16.2656 28.6133L16.207 28.5371L15.3047 22.5488V22.4316L15.7031 20.3398L15.7617 20.2344Z" fill="#760D16"/>
<path d="M9 23.4395L9.43945 21.248L15.7617 20.2344L15.334 22.4668V22.6133L9.07617 23.498L9 23.4395Z" fill="#EF463E"/>
<path d="M15.334 22.4668L16.2656 28.6133L10.0078 29.5918L9 23.4395L15.334 22.4668Z" fill="url(#paint3_linear_123_177)"/>
<path d="M14.6602 27.6348C14.6133 27.5762 14.543 27.5352 14.4609 27.5059C14.3789 27.4766 14.2793 27.4648 14.1562 27.4648C14.0449 27.4648 13.916 27.4766 13.7754 27.5L12.123 27.7812C12.1406 27.6523 12.2051 27.4883 12.3164 27.2832C12.4395 27.0547 12.627 26.7793 12.8672 26.4629C12.9492 26.3516 13.0137 26.2695 13.0605 26.2109C13.0898 26.1699 13.1367 26.1172 13.1953 26.041C13.5762 25.543 13.8047 25.1387 13.8984 24.8223C13.9512 24.6406 13.9805 24.459 13.9922 24.2773C13.998 24.2246 13.998 24.1777 13.998 24.1309C13.998 24.002 13.9863 23.873 13.9629 23.7441C13.9453 23.627 13.916 23.5332 13.875 23.457C13.834 23.3809 13.7871 23.3223 13.7285 23.2871C13.6641 23.2461 13.5645 23.2285 13.4414 23.2285C13.3418 23.2285 13.2188 23.2402 13.0723 23.2637L11.1621 23.5918C10.9336 23.6328 10.7578 23.6973 10.6523 23.8027C10.5645 23.8848 10.5234 23.9902 10.5234 24.1074C10.5234 24.1367 10.5234 24.1719 10.5293 24.207C10.5586 24.3711 10.6406 24.4883 10.7754 24.5469C10.8574 24.582 10.9512 24.5996 11.0684 24.5996C11.1445 24.5996 11.2324 24.5938 11.3262 24.5762L12.9199 24.2949C12.9199 24.3242 12.9258 24.3535 12.9258 24.377C12.9258 24.4766 12.9082 24.5762 12.873 24.6699C12.8262 24.8047 12.709 24.9922 12.5156 25.2324C12.4629 25.2969 12.3809 25.4023 12.2695 25.5371C11.8359 26.0586 11.5313 26.5039 11.3438 26.873C11.209 27.1309 11.1211 27.377 11.0684 27.6289C11.0391 27.7754 11.0215 27.9102 11.0215 28.0449C11.0215 28.1387 11.0273 28.2324 11.0449 28.3203C11.0684 28.4492 11.0977 28.5547 11.1387 28.6367C11.1797 28.7188 11.2383 28.7832 11.3027 28.8184C11.3672 28.8535 11.4551 28.8652 11.584 28.8652C11.7422 28.8652 11.959 28.8418 12.2344 28.7949L13.9688 28.4961C14.2734 28.4434 14.4902 28.3672 14.6133 28.2676C14.7129 28.1855 14.7656 28.0742 14.7656 27.9453C14.7656 27.9102 14.7598 27.875 14.7539 27.8398C14.7422 27.7637 14.7129 27.6934 14.6602 27.6348Z" fill="white"/>
<defs>
<linearGradient id="paint0_linear_123_177" x1="356.698" y1="32.6074" x2="356.698" y2="698.285" gradientUnits="userSpaceOnUse">
<stop offset="0.005618" stop-color="#FFE513"/>
<stop offset="1" stop-color="#FDB924"/>
</linearGradient>
<linearGradient id="paint1_linear_123_177" x1="56.386" y1="118.625" x2="706.569" y2="645.939" gradientUnits="userSpaceOnUse">
<stop offset="0.005618" stop-color="#008CD2"/>
<stop offset="1" stop-color="#00649D"/>
</linearGradient>
<linearGradient id="paint2_linear_123_177" x1="427.865" y1="253.569" x2="427.865" y2="836.771" gradientUnits="userSpaceOnUse">
<stop stop-color="#26A146"/>
<stop offset="1" stop-color="#008A52"/>
</linearGradient>
<linearGradient id="paint3_linear_123_177" x1="326.754" y1="80.9473" x2="423.341" y2="687.099" gradientUnits="userSpaceOnUse">
<stop stop-color="#D92231"/>
<stop offset="1" stop-color="#BA2234"/>
</linearGradient>
</defs>
</svg>
