<svg width="16" height="16" viewBox="0 0 16 16" fill="none" xmlns="http://www.w3.org/2000/svg">
<g clip-path="url(#clip0_115_159)">
<path d="M8.47784 0.830928C8.43371 0.741896 8.36559 0.666961 8.28116 0.614572C8.19673 0.562183 8.09934 0.534424 7.99997 0.534424C7.9006 0.534424 7.80321 0.562183 7.71878 0.614572C7.63435 0.666961 7.56623 0.741896 7.5221 0.830928L5.33864 5.2544L0.456505 5.96373C0.357998 5.97803 0.265461 6.01962 0.189361 6.08378C0.113261 6.14795 0.0566365 6.23213 0.0258928 6.3268C-0.004851 6.42147 -0.00848679 6.52286 0.0153967 6.61949C0.0392803 6.71613 0.0897298 6.80415 0.161038 6.87359L3.69384 10.3168L2.8597 15.1797C2.84297 15.2777 2.85397 15.3785 2.89145 15.4706C2.92894 15.5627 2.99142 15.6424 3.07184 15.7009C3.15227 15.7594 3.24744 15.7942 3.3466 15.8014C3.44576 15.8086 3.54498 15.788 3.63304 15.7419L7.99997 13.4453L12.3669 15.7419C12.455 15.788 12.5542 15.8086 12.6533 15.8014C12.7525 15.7942 12.8477 15.7594 12.9281 15.7009C13.0085 15.6424 13.071 15.5627 13.1085 15.4706C13.146 15.3785 13.157 15.2777 13.1402 15.1797L12.3061 10.3157L15.8389 6.87359C15.9102 6.80415 15.9607 6.71613 15.9845 6.61949C16.0084 6.52286 16.0048 6.42147 15.974 6.3268C15.9433 6.23213 15.8867 6.14795 15.8106 6.08378C15.7345 6.01962 15.6419 5.97803 15.5434 5.96373L10.6613 5.2544L8.47784 0.830928Z" fill="black"/>
</g>
<defs>
<clipPath id="clip0_115_159">
<rect width="16" height="16" fill="white"/>
</clipPath>
</defs>
</svg>
