<svg width="24" height="24" viewBox="0 0 24 24" fill="none" xmlns="http://www.w3.org/2000/svg">
<g clip-path="url(#clip0_115_149)">
<path d="M21.8286 0.950623H2.17114C1.84791 0.950623 1.53792 1.07903 1.30936 1.30759C1.0808 1.53615 0.952393 1.84614 0.952393 2.16937V21.8287C0.952393 22.152 1.0808 22.462 1.30936 22.6905C1.53792 22.9191 1.84791 23.0475 2.17114 23.0475H12.7499V14.4919H9.87364V11.1562H12.7499V8.69625C12.7499 5.8425 14.4936 4.28812 17.0399 4.28812C17.8991 4.28506 18.7579 4.32887 19.6124 4.41937V7.4025H17.8518C16.4661 7.4025 16.198 8.06062 16.198 9.02625V11.1562H19.4999L19.0705 14.4919H16.198V23.0494H21.823C22.1461 23.0489 22.4558 22.9203 22.6843 22.6919C22.9127 22.4634 23.0413 22.1537 23.0418 21.8306V2.17125C23.0423 1.84866 22.9149 1.53904 22.6875 1.31023C22.4601 1.08143 22.1512 0.952111 21.8286 0.950623Z" fill="black"/>
</g>
<defs>
<clipPath id="clip0_115_149">
<rect width="24" height="24" fill="white"/>
</clipPath>
</defs>
</svg>
