<svg width="25" height="24" viewBox="0 0 25 24" fill="none" xmlns="http://www.w3.org/2000/svg">
<g clip-path="url(#clip0_115_155)">
<path d="M13.7128 14.4919V23.0475L17.1609 23.0494V14.4919H20.0334L20.4628 11.1562H17.1609V9.02625C17.1609 8.06062 17.429 7.4025 18.8147 7.4025H20.5753V4.41937C19.7208 4.32887 18.862 4.28506 18.0028 4.28812C15.4565 4.28812 13.7128 5.8425 13.7128 8.69625V11.1562H10.8365V14.4919H13.7128Z" fill="black"/>
<path d="M13.7128 23.0475H3.13403C2.8108 23.0475 2.50081 22.9191 2.27225 22.6905C2.04369 22.462 1.91528 22.152 1.91528 21.8287V2.16937C1.91528 1.84614 2.04369 1.53615 2.27225 1.30759C2.50081 1.07903 2.8108 0.950623 3.13403 0.950623H22.7915C23.1141 0.952111 23.4229 1.08143 23.6503 1.31023C23.8777 1.53904 24.0052 1.84866 24.0047 2.17125V21.8306C24.0042 22.1537 23.8756 22.4634 23.6471 22.6919C23.4187 22.9203 23.109 23.0489 22.7859 23.0494H17.1609M13.7128 23.0475V14.4919H10.8365V11.1562H13.7128V8.69625C13.7128 5.8425 15.4565 4.28812 18.0028 4.28812C18.862 4.28506 19.7208 4.32887 20.5753 4.41937V7.4025H18.8147C17.429 7.4025 17.1609 8.06062 17.1609 9.02625V11.1562H20.4628L20.0334 14.4919H17.1609V23.0494M13.7128 23.0475L17.1609 23.0494" stroke="black"/>
</g>
<defs>
<clipPath id="clip0_115_155">
<rect width="24" height="24" fill="white" transform="translate(0.962891)"/>
</clipPath>
</defs>
</svg>
